<svg id="Layer_1" data-name="Layer 1" xmlns="http://www.w3.org/2000/svg" viewBox="0 0 90.58 16"><defs><style>.cls-1{fill:#fff;}.cls-2{fill:#b3b3b3;}</style></defs><title>intakelogo</title><path class="cls-1" d="M5.8,2H7.72L6.65,9.63l3.42-3.2h2.47L8.73,9.94l2.94,4.2H9.12L6.6,10.21h0L6,14.14H4.09Z" transform="translate(-4.09 -2)"/><path class="cls-1" d="M12.51,6.43h1.83l-.18,1.24h0a3.21,3.21,0,0,1,1-1,2.69,2.69,0,0,1,1.59-.43A2.78,2.78,0,0,1,18,6.5a1.91,1.91,0,0,1,.78.67,2.2,2.2,0,0,1,.34,1,4.38,4.38,0,0,1,0,1.14l-.67,4.86H16.54l.55-3.9a7,7,0,0,0,.06-.71,2.52,2.52,0,0,0-.07-.74,1.09,1.09,0,0,0-.35-.58A1.05,1.05,0,0,0,16,8a2,2,0,0,0-.84.16,1.84,1.84,0,0,0-.6.43,2.26,2.26,0,0,0-.4.63,2.61,2.61,0,0,0-.2.74l-.58,4.2H11.43Z" transform="translate(-4.09 -2)"/><path class="cls-1" d="M27.74,6.43l-1,7a7.07,7.07,0,0,1-.52,1.89,4.65,4.65,0,0,1-1,1.43,4.39,4.39,0,0,1-1.49.91,5.77,5.77,0,0,1-2,.32,7.11,7.11,0,0,1-2-.27,4,4,0,0,1-1.64-1l1.38-1.57a4,4,0,0,0,1.08.82,3.19,3.19,0,0,0,1.41.29,3.29,3.29,0,0,0,1.19-.2,2.24,2.24,0,0,0,.82-.53,2.42,2.42,0,0,0,.53-.81,5.37,5.37,0,0,0,.27-1.05l.06-.56h0a3.18,3.18,0,0,1-1.22.84,3.89,3.89,0,0,1-1.45.28,3.54,3.54,0,0,1-1.53-.31,3,3,0,0,1-1.69-2.1,4.14,4.14,0,0,1-.07-1.54,5.25,5.25,0,0,1,.48-1.59,4.86,4.86,0,0,1,.94-1.29,4.18,4.18,0,0,1,3-1.17,3.34,3.34,0,0,1,1.47.32,2.05,2.05,0,0,1,1,1h0l.16-1.16ZM23.4,8a2.67,2.67,0,0,0-.95.16,2.62,2.62,0,0,0-1.65,2.13,2.09,2.09,0,0,0,.05.87,2.21,2.21,0,0,0,.38.71,1.87,1.87,0,0,0,.65.48,2.13,2.13,0,0,0,.88.18,2.63,2.63,0,0,0,1-.18,3,3,0,0,0,.79-.47,2.46,2.46,0,0,0,.55-.72,3.4,3.4,0,0,0,.3-.9A2.07,2.07,0,0,0,25,8.6,1.91,1.91,0,0,0,23.4,8Z" transform="translate(-4.09 -2)"/><path class="cls-1" d="M10,2.93h.64a1.56,1.56,0,0,1,.44.06,1,1,0,0,1,.37.2,1.16,1.16,0,0,1,.25.35,1.35,1.35,0,0,1,.09.52,1.22,1.22,0,0,1-.09.49,1.21,1.21,0,0,1-.24.35,1.13,1.13,0,0,1-.35.21,1.14,1.14,0,0,1-.41.07H10Zm.43,1.8h.22a1.26,1.26,0,0,0,.28,0,.53.53,0,0,0,.22-.12.46.46,0,0,0,.14-.21A.77.77,0,0,0,11.33,4a.65.65,0,0,0-.05-.29.48.48,0,0,0-.14-.2.72.72,0,0,0-.21-.12.75.75,0,0,0-.26,0h-.25Z" transform="translate(-4.09 -2)"/><path class="cls-1" d="M13.07,2.93h1.31v.46h-.89v.42h.84v.46h-.84v.46h.94v.45H13.07Z" transform="translate(-4.09 -2)"/><path class="cls-1" d="M16.71,3.48a.26.26,0,0,0-.14-.11.53.53,0,0,0-.17,0l-.09,0a.18.18,0,0,0-.1,0,.23.23,0,0,0-.07.07.31.31,0,0,0,0,.11.2.2,0,0,0,.06.15.46.46,0,0,0,.17.09l.21.08a.65.65,0,0,1,.22.11.56.56,0,0,1,.16.18A.72.72,0,0,1,17,4.5a.88.88,0,0,1-.06.33.66.66,0,0,1-.17.23.59.59,0,0,1-.23.14.92.92,0,0,1-.29,0,.84.84,0,0,1-.35-.07.75.75,0,0,1-.3-.21l.3-.39a.52.52,0,0,0,.17.16.5.5,0,0,0,.21,0h.1l.1,0a.24.24,0,0,0,.06-.08.17.17,0,0,0,0-.1.19.19,0,0,0-.07-.16.44.44,0,0,0-.16-.1l-.22-.09a.65.65,0,0,1-.22-.11.59.59,0,0,1-.17-.18.66.66,0,0,1-.07-.3.79.79,0,0,1,.06-.32.81.81,0,0,1,.17-.23.72.72,0,0,1,.24-.14.8.8,0,0,1,.27,0,.86.86,0,0,1,.32.05.8.8,0,0,1,.27.18Z" transform="translate(-4.09 -2)"/><path class="cls-1" d="M18.3,2.93h.43V5.18H18.3Z" transform="translate(-4.09 -2)"/><path class="cls-1" d="M21.85,5a1.22,1.22,0,0,1-.39.17,2,2,0,0,1-.42,0,1.16,1.16,0,0,1-.42-.08,1,1,0,0,1-.33-.24,1.34,1.34,0,0,1-.22-.37A1.53,1.53,0,0,1,20,4.06a1.49,1.49,0,0,1,.07-.49,1.4,1.4,0,0,1,.22-.38A.86.86,0,0,1,20.62,3,1,1,0,0,1,21,2.88a1.49,1.49,0,0,1,.43.06.83.83,0,0,1,.34.22l-.3.39a.51.51,0,0,0-.2-.16.59.59,0,0,0-.52,0,.45.45,0,0,0-.19.15.71.71,0,0,0-.12.23.88.88,0,0,0,0,.29.92.92,0,0,0,0,.29.84.84,0,0,0,.12.23.53.53,0,0,0,.44.2.88.88,0,0,0,.24,0l.16-.08V4.31h-.35V3.85h.76Z" transform="translate(-4.09 -2)"/><path class="cls-1" d="M23.21,2.93h.58l.82,1.57h0V2.93H25V5.18h-.56l-.84-1.6h0v1.6h-.42Z" transform="translate(-4.09 -2)"/><path class="cls-1" d="M27.38,3.48a.33.33,0,0,0-.15-.11.47.47,0,0,0-.16,0l-.1,0a.18.18,0,0,0-.09,0,.12.12,0,0,0-.07.07.2.2,0,0,0,0,.26.35.35,0,0,0,.16.09l.21.08a.65.65,0,0,1,.22.11.46.46,0,0,1,.16.18.61.61,0,0,1,.07.32.88.88,0,0,1-.06.33.63.63,0,0,1-.16.23.72.72,0,0,1-.24.14.92.92,0,0,1-.29,0,.84.84,0,0,1-.35-.07.91.91,0,0,1-.3-.21l.31-.39a.49.49,0,0,0,.16.16.54.54,0,0,0,.21,0h.1l.1,0a.27.27,0,0,0,.07-.08.16.16,0,0,0,0-.1.21.21,0,0,0-.06-.16.48.48,0,0,0-.17-.1l-.22-.09a.65.65,0,0,1-.22-.11.59.59,0,0,1-.17-.18.67.67,0,0,1-.06-.3.79.79,0,0,1,.06-.32.63.63,0,0,1,.16-.23.72.72,0,0,1,.24-.14.84.84,0,0,1,.27,0,.86.86,0,0,1,.32.05.84.84,0,0,1,.28.18Z" transform="translate(-4.09 -2)"/><rect class="cls-1" x="30.12" y="0.5" width="0.41" height="15"/><path class="cls-2" d="M41.49,3.87h1.14L40.92,16.13H39.78Z" transform="translate(-4.09 -2)"/><path class="cls-2" d="M45.3,3.87h1.47L52.72,14.6h0l1.5-10.73H55.4L53.69,16.13H52.22L46.27,5.4h0l-1.5,10.73H43.58Z" transform="translate(-4.09 -2)"/><path class="cls-2" d="M60.65,4.91H56.46l.14-1h9.52l-.14,1H61.79L60.22,16.13H59.07Z" transform="translate(-4.09 -2)"/><path class="cls-2" d="M69.89,3.87h1.18l3.44,12.26H73.23l-.88-3.26H65.86L64,16.13H62.83Zm.37,1.25-3.81,6.71h5.62Z" transform="translate(-4.09 -2)"/><path class="cls-2" d="M77.3,3.87h1.14l-.76,5.4h.1l6.7-5.4h1.58l-7,5.61,5.63,6.65H83.05L77.71,9.79h-.1l-.88,6.34H75.59Z" transform="translate(-4.09 -2)"/><path class="cls-2" d="M87.18,3.87h7.5l-.14,1H88.19l-.63,4.36h6l-.14,1h-6l-.67,4.78h6.63l-.14,1H85.47Z" transform="translate(-4.09 -2)"/></svg>